<svg width="45" height="45" viewBox="0 0 45 45" fill="none" xmlns="http://www.w3.org/2000/svg">
<rect width="45" height="45" rx="5" fill="#CECBCB" fill-opacity="0.91"/>
<path d="M23 30V16C23 14.3432 21.6569 13 20 13C18.3432 13 17 14.3432 17 16C17 16.5523 16.5523 17 16 17C14.3432 17 13 18.3432 13 20C13 21.6569 14.3432 23 16 23C14.3432 23 13 24.3431 13 26C13 27.6569 14.3432 29 16 29C16.5523 29 17 29.4477 17 30C17 31.6569 18.3432 33 20 33C21.6569 33 23 31.6569 23 30Z" stroke="#141B34" stroke-width="1.5" stroke-linejoin="round"/>
<path d="M23 30V16C23 14.3432 24.3431 13 26 13C27.6569 13 29 14.3432 29 16C29 16.5523 29.4477 17 30 17C31.6569 17 33 18.3432 33 20C33 21.6569 31.6569 23 30 23C31.6569 23 33 24.3431 33 26C33 27.6569 31.6569 29 30 29C29.4477 29 29 29.4477 29 30C29 31.6569 27.6569 33 26 33C24.3431 33 23 31.6569 23 30Z" stroke="#141B34" stroke-width="1.5" stroke-linejoin="round"/>
</svg>
