<svg width="45" height="45" viewBox="0 0 45 45" fill="none" xmlns="http://www.w3.org/2000/svg">
<rect width="45" height="45" rx="5" fill="#CECBCB" fill-opacity="0.91"/>
<path d="M22.5 32.0001C27.7466 32.0001 32 27.3496 32 24.1766C32 21.0036 27.7466 16.353 22.5 16.353C17.2534 16.353 13 21.0069 13 24.1766C13 27.3462 17.2534 32.0001 22.5 32.0001Z" stroke="black" stroke-linejoin="round"/>
<path d="M22.4987 27.5296C23.3385 27.5296 24.144 27.1764 24.7379 26.5476C25.3317 25.9188 25.6654 25.0659 25.6654 24.1767C25.6654 23.2874 25.3317 22.4346 24.7379 21.8058C24.144 21.177 23.3385 20.8237 22.4987 20.8237C21.6588 20.8237 20.8534 21.177 20.2595 21.8058C19.6657 22.4346 19.332 23.2874 19.332 24.1767C19.332 25.0659 19.6657 25.9188 20.2595 26.5476C20.8534 27.1764 21.6588 27.5296 22.4987 27.5296Z" stroke="black" stroke-linejoin="round"/>
<path d="M16.8359 15.3839L18.205 17.4069M28.6376 15.6321L27.268 17.655M22.5069 13V16.3529" stroke="black" stroke-linecap="round"/>
</svg>
