<svg width="45" height="45" viewBox="0 0 45 45" fill="none" xmlns="http://www.w3.org/2000/svg">
<rect width="45" height="45" rx="5" fill="#CECBCB" fill-opacity="0.91"/>
<path d="M26.9939 16.498C26.9939 17.3265 26.322 17.998 25.4931 17.998C24.6641 17.998 23.9922 17.3265 23.9922 16.498C23.9922 15.6696 24.6641 14.998 25.4931 14.998C26.322 14.998 26.9939 15.6696 26.9939 16.498Z" stroke="black" stroke-width="1.5"/>
<path d="M32 14C31.5 16 30.5 19 26 20C22.4857 20.781 19.5 21 18 24" stroke="black" stroke-width="1.5"/>
<path d="M24.5 20.5C24.5 20.5 24 31.5 16 32M28 19.5C28 19.5 28.5 28 14 28" stroke="black" stroke-width="1.5"/>
</svg>
