<svg width="45" height="45" viewBox="0 0 45 45" fill="none" xmlns="http://www.w3.org/2000/svg">
<rect width="45" height="45" rx="5" fill="#CECBCB" fill-opacity="0.91"/>
<path d="M18.6918 30.7837C10.4171 25.7061 17.7728 15.5493 21.4507 14.098C24.3922 12.9381 26.9664 14.098 27.8854 14.8236C31.3604 17.5643 27.5608 20.5468 29.4008 22.7236C35.0565 28.3275 26.6865 35.6892 18.6918 30.7837Z" stroke="black" stroke-linecap="round" stroke-linejoin="round"/>
<path d="M24.0741 13.6079V12M20.8588 14.388L19.7877 13.0561M18.5178 16.3656L16.8949 15.5139M16.5217 19.096L14.7913 18.4079M15.2761 22.0461L13.3976 21.7361M14.913 24.8941L13 24.9401M15.6615 27.7267L13.9007 28.3552M17.611 30.0381L16.2782 31.1912M20.6052 31.7295L19.7248 33.1569M24.0741 34V32.3921M27.7195 33.3936L26.8919 31.9441M30.8639 31.537L29.5149 30.3958M33 28.0963L31.1276 27.7557M32.6491 24.2775L30.8619 24.8566M30.7746 21.4585L28.9895 22.0376M31.2473 18.5816L29.3445 18.3993M30.6935 15.3112L28.9205 15.9176M27.8879 12.8568L26.8107 14.1854M21.5424 26.8444C21.5424 27.3996 21.8051 27.932 22.2727 28.3246C22.7402 28.7172 23.3744 28.9378 24.0356 28.9378C24.6968 28.9378 25.331 28.7172 25.7985 28.3246C26.2661 27.932 26.5288 27.3996 26.5288 26.8444C26.5288 26.2892 26.2661 25.7567 25.7985 25.3641C25.331 24.9716 24.6968 24.751 24.0356 24.751C23.3744 24.751 22.7402 24.9716 22.2727 25.3641C21.8051 25.7567 21.5424 26.2892 21.5424 26.8444ZM21.5465 18.7536C21.5465 19.2076 21.7613 19.6431 22.1436 19.9641C22.526 20.2851 23.0445 20.4655 23.5853 20.4655C24.126 20.4655 24.6445 20.2851 25.0269 19.9641C25.4092 19.6431 25.624 19.2076 25.624 18.7536C25.624 18.2996 25.4092 17.8642 25.0269 17.5432C24.6445 17.2222 24.126 17.0418 23.5853 17.0418C23.0445 17.0418 22.526 17.2222 22.1436 17.5432C21.7613 17.8642 21.5465 18.2996 21.5465 18.7536ZM19.2501 23.4003C19.1156 23.4003 18.9866 23.3554 18.8915 23.2756C18.7964 23.1957 18.743 23.0874 18.743 22.9745C18.743 22.8615 18.7964 22.7532 18.8915 22.6733C18.9866 22.5935 19.1156 22.5486 19.2501 22.5486C19.3846 22.5486 19.5136 22.5935 19.6087 22.6733C19.7038 22.7532 19.7573 22.8615 19.7573 22.9745C19.7573 23.0874 19.7038 23.1957 19.6087 23.2756C19.5136 23.3554 19.3846 23.4003 19.2501 23.4003Z" stroke="black" stroke-linecap="round" stroke-linejoin="round"/>
</svg>
