<svg width="70" height="70" viewBox="0 0 70 70" fill="none" xmlns="http://www.w3.org/2000/svg">
<rect width="70" height="70" rx="35" fill="#1C9F1B"/>
<path d="M35.112 46.512C32.4027 46.512 30.312 45.8933 28.84 44.656C27.368 43.3973 26.5787 41.712 26.472 39.6L30.728 39.408C30.856 40.624 31.304 41.5093 32.072 42.064C32.8613 42.6187 33.8747 42.896 35.112 42.896C35.944 42.896 36.7013 42.7787 37.384 42.544C38.0667 42.288 38.6107 41.904 39.016 41.392C39.4213 40.88 39.624 40.2187 39.624 39.408C39.624 38.1707 39.208 37.2533 38.376 36.656C37.544 36.0587 36.4347 35.76 35.048 35.76H33.064V32.464H35.048C36.136 32.464 37.0427 32.24 37.768 31.792C38.5147 31.3227 38.888 30.544 38.888 29.456C38.888 28.4747 38.5787 27.7173 37.96 27.184C37.3627 26.6507 36.424 26.384 35.144 26.384C33.8853 26.384 32.936 26.64 32.296 27.152C31.656 27.664 31.272 28.336 31.144 29.168L26.888 28.944C27.1227 27.0667 27.944 25.5733 29.352 24.464C30.7813 23.3333 32.712 22.768 35.144 22.768C36.8507 22.768 38.3013 23.024 39.496 23.536C40.6907 24.048 41.5973 24.7733 42.216 25.712C42.856 26.6507 43.176 27.7707 43.176 29.072C43.176 30.4373 42.728 31.5573 41.832 32.432C40.936 33.3067 39.656 33.8933 37.992 34.192V33.648C39.848 33.904 41.2987 34.5653 42.344 35.632C43.3893 36.6773 43.912 38.0107 43.912 39.632C43.912 41.0827 43.5493 42.32 42.824 43.344C42.0987 44.368 41.0747 45.1573 39.752 45.712C38.4293 46.2453 36.8827 46.512 35.112 46.512Z" fill="white"/>
</svg>
