<svg width="70" height="70" viewBox="0 0 70 70" fill="none" xmlns="http://www.w3.org/2000/svg">
<rect width="70" height="70" rx="35" fill="#1C9F1B"/>
<path d="M26.888 46C26.888 44.1653 27.144 42.5653 27.656 41.2C28.168 39.8133 29.032 38.5547 30.248 37.424C31.464 36.272 33.1067 35.152 35.176 34.064C36.2 33.5093 37.0213 33.0187 37.64 32.592C38.2587 32.1653 38.7067 31.728 38.984 31.28C39.2613 30.8107 39.4 30.256 39.4 29.616C39.4 28.976 39.2613 28.4213 38.984 27.952C38.7067 27.4613 38.2907 27.0773 37.736 26.8C37.2027 26.5227 36.5307 26.384 35.72 26.384C34.4187 26.384 33.384 26.7573 32.616 27.504C31.8693 28.2293 31.4107 29.2747 31.24 30.64L26.952 30.384C27.1653 28.016 28.0293 26.16 29.544 24.816C31.08 23.4507 33.1387 22.768 35.72 22.768C37.384 22.768 38.8133 23.056 40.008 23.632C41.2027 24.1867 42.1093 24.976 42.728 26C43.368 27.024 43.688 28.208 43.688 29.552C43.688 30.704 43.4853 31.696 43.08 32.528C42.696 33.36 42.056 34.128 41.16 34.832C40.2853 35.5147 39.1013 36.2507 37.608 37.04C35.7307 38.0427 34.3227 39.0133 33.384 39.952C32.4453 40.8693 31.944 41.68 31.88 42.384H43.688V46H26.888Z" fill="white"/>
</svg>
